<mxfile host="app.diagrams.net" modified="2024-03-28T00:40:03.526Z" agent="Mozilla/5.0 (Windows NT 10.0; Win64; x64) AppleWebKit/537.36 (KHTML, like Gecko) Chrome/123.0.0.0 Safari/537.36" etag="D95LoF-xPYP4hdOYGdYF" version="24.0.7" type="google">
  <diagram name="Page-1" id="yjr2vPIuOreViya2cYGH">
    <mxGraphModel dx="1050" dy="618" grid="1" gridSize="10" guides="1" tooltips="1" connect="1" arrows="1" fold="1" page="1" pageScale="1" pageWidth="850" pageHeight="1100" math="0" shadow="0">
      <root>
        <mxCell id="0" />
        <mxCell id="1" parent="0" />
        <mxCell id="PMHRBY-xHjiPG8WiGBpw-3" style="edgeStyle=orthogonalEdgeStyle;rounded=0;orthogonalLoop=1;jettySize=auto;html=1;entryX=0.5;entryY=0;entryDx=0;entryDy=0;" edge="1" parent="1" source="PMHRBY-xHjiPG8WiGBpw-1" target="PMHRBY-xHjiPG8WiGBpw-4">
          <mxGeometry relative="1" as="geometry">
            <mxPoint x="200" y="180" as="targetPoint" />
          </mxGeometry>
        </mxCell>
        <mxCell id="PMHRBY-xHjiPG8WiGBpw-1" value="Start" style="ellipse;whiteSpace=wrap;html=1;" vertex="1" parent="1">
          <mxGeometry x="140" y="10" width="120" height="80" as="geometry" />
        </mxCell>
        <mxCell id="PMHRBY-xHjiPG8WiGBpw-5" style="edgeStyle=orthogonalEdgeStyle;rounded=0;orthogonalLoop=1;jettySize=auto;html=1;" edge="1" parent="1" source="PMHRBY-xHjiPG8WiGBpw-4" target="PMHRBY-xHjiPG8WiGBpw-7">
          <mxGeometry relative="1" as="geometry">
            <mxPoint x="200" y="310" as="targetPoint" />
          </mxGeometry>
        </mxCell>
        <mxCell id="PMHRBY-xHjiPG8WiGBpw-4" value="Set Main LED to Green" style="rounded=0;whiteSpace=wrap;html=1;" vertex="1" parent="1">
          <mxGeometry x="140" y="160" width="120" height="60" as="geometry" />
        </mxCell>
        <mxCell id="PMHRBY-xHjiPG8WiGBpw-8" style="edgeStyle=orthogonalEdgeStyle;rounded=0;orthogonalLoop=1;jettySize=auto;html=1;exitX=0.5;exitY=1;exitDx=0;exitDy=0;entryX=0.5;entryY=0;entryDx=0;entryDy=0;" edge="1" parent="1" source="PMHRBY-xHjiPG8WiGBpw-7" target="PMHRBY-xHjiPG8WiGBpw-11">
          <mxGeometry relative="1" as="geometry">
            <mxPoint x="200" y="430" as="targetPoint" />
            <Array as="points">
              <mxPoint x="200" y="395" />
              <mxPoint x="201" y="395" />
            </Array>
          </mxGeometry>
        </mxCell>
        <mxCell id="PMHRBY-xHjiPG8WiGBpw-7" value="Set Speak &quot;Ready, Set, Go! and &quot;wait&quot;" style="shape=parallelogram;perimeter=parallelogramPerimeter;whiteSpace=wrap;html=1;fixedSize=1;" vertex="1" parent="1">
          <mxGeometry x="100" y="270" width="200" height="90" as="geometry" />
        </mxCell>
        <mxCell id="PMHRBY-xHjiPG8WiGBpw-12" style="edgeStyle=orthogonalEdgeStyle;rounded=0;orthogonalLoop=1;jettySize=auto;html=1;entryX=0.5;entryY=0;entryDx=0;entryDy=0;" edge="1" parent="1" source="PMHRBY-xHjiPG8WiGBpw-9" target="PMHRBY-xHjiPG8WiGBpw-14">
          <mxGeometry relative="1" as="geometry">
            <mxPoint x="200" y="700" as="targetPoint" />
          </mxGeometry>
        </mxCell>
        <mxCell id="PMHRBY-xHjiPG8WiGBpw-9" value="Set a Delay for 2 seconds&amp;nbsp;" style="shape=parallelogram;perimeter=parallelogramPerimeter;whiteSpace=wrap;html=1;fixedSize=1;" vertex="1" parent="1">
          <mxGeometry x="130" y="550" width="140" height="70" as="geometry" />
        </mxCell>
        <mxCell id="PMHRBY-xHjiPG8WiGBpw-13" style="edgeStyle=orthogonalEdgeStyle;rounded=0;orthogonalLoop=1;jettySize=auto;html=1;entryX=0.5;entryY=0;entryDx=0;entryDy=0;" edge="1" parent="1" source="PMHRBY-xHjiPG8WiGBpw-11" target="PMHRBY-xHjiPG8WiGBpw-9">
          <mxGeometry relative="1" as="geometry" />
        </mxCell>
        <mxCell id="PMHRBY-xHjiPG8WiGBpw-11" value="Set roll = 0 Degrees&amp;nbsp;&lt;div&gt;Speed = 100&lt;/div&gt;&lt;div&gt;Time= 9.6s&lt;/div&gt;" style="shape=parallelogram;perimeter=parallelogramPerimeter;whiteSpace=wrap;html=1;fixedSize=1;" vertex="1" parent="1">
          <mxGeometry x="120" y="420" width="160" height="70" as="geometry" />
        </mxCell>
        <mxCell id="PMHRBY-xHjiPG8WiGBpw-16" style="edgeStyle=orthogonalEdgeStyle;rounded=0;orthogonalLoop=1;jettySize=auto;html=1;entryX=0.5;entryY=0;entryDx=0;entryDy=0;" edge="1" parent="1" source="PMHRBY-xHjiPG8WiGBpw-14" target="PMHRBY-xHjiPG8WiGBpw-15">
          <mxGeometry relative="1" as="geometry" />
        </mxCell>
        <mxCell id="PMHRBY-xHjiPG8WiGBpw-14" value="Set roll = 90 Degrees&amp;nbsp;&lt;div&gt;Speed = 120&lt;/div&gt;&lt;div&gt;Time= 4.5s&lt;/div&gt;" style="shape=parallelogram;perimeter=parallelogramPerimeter;whiteSpace=wrap;html=1;fixedSize=1;" vertex="1" parent="1">
          <mxGeometry x="120" y="710" width="160" height="70" as="geometry" />
        </mxCell>
        <mxCell id="PMHRBY-xHjiPG8WiGBpw-19" style="edgeStyle=orthogonalEdgeStyle;rounded=0;orthogonalLoop=1;jettySize=auto;html=1;exitX=1;exitY=0.5;exitDx=0;exitDy=0;entryX=0;entryY=0.5;entryDx=0;entryDy=0;" edge="1" parent="1" source="PMHRBY-xHjiPG8WiGBpw-15" target="PMHRBY-xHjiPG8WiGBpw-18">
          <mxGeometry relative="1" as="geometry" />
        </mxCell>
        <mxCell id="PMHRBY-xHjiPG8WiGBpw-15" value="Set a Delay for 2 seconds&amp;nbsp;" style="shape=parallelogram;perimeter=parallelogramPerimeter;whiteSpace=wrap;html=1;fixedSize=1;" vertex="1" parent="1">
          <mxGeometry x="120" y="830" width="160" height="90" as="geometry" />
        </mxCell>
        <mxCell id="PMHRBY-xHjiPG8WiGBpw-20" style="edgeStyle=orthogonalEdgeStyle;rounded=0;orthogonalLoop=1;jettySize=auto;html=1;entryX=0;entryY=0.5;entryDx=0;entryDy=0;" edge="1" parent="1" source="PMHRBY-xHjiPG8WiGBpw-18" target="PMHRBY-xHjiPG8WiGBpw-21">
          <mxGeometry relative="1" as="geometry">
            <mxPoint x="570" y="875" as="targetPoint" />
          </mxGeometry>
        </mxCell>
        <mxCell id="PMHRBY-xHjiPG8WiGBpw-18" value="Set roll = 180 Degrees&amp;nbsp;&lt;div&gt;Speed = 100&lt;/div&gt;&lt;div&gt;Time= 9.8s&lt;/div&gt;" style="shape=parallelogram;perimeter=parallelogramPerimeter;whiteSpace=wrap;html=1;fixedSize=1;" vertex="1" parent="1">
          <mxGeometry x="345" y="840" width="160" height="70" as="geometry" />
        </mxCell>
        <mxCell id="PMHRBY-xHjiPG8WiGBpw-24" style="edgeStyle=orthogonalEdgeStyle;rounded=0;orthogonalLoop=1;jettySize=auto;html=1;entryX=0.5;entryY=1;entryDx=0;entryDy=0;" edge="1" parent="1" source="PMHRBY-xHjiPG8WiGBpw-21" target="PMHRBY-xHjiPG8WiGBpw-23">
          <mxGeometry relative="1" as="geometry" />
        </mxCell>
        <mxCell id="PMHRBY-xHjiPG8WiGBpw-21" value="Set a Delay for 2 Seconds" style="shape=parallelogram;perimeter=parallelogramPerimeter;whiteSpace=wrap;html=1;fixedSize=1;" vertex="1" parent="1">
          <mxGeometry x="560" y="840" width="140" height="70" as="geometry" />
        </mxCell>
        <mxCell id="PMHRBY-xHjiPG8WiGBpw-26" style="edgeStyle=orthogonalEdgeStyle;rounded=0;orthogonalLoop=1;jettySize=auto;html=1;entryX=0.5;entryY=1;entryDx=0;entryDy=0;" edge="1" parent="1" source="PMHRBY-xHjiPG8WiGBpw-23" target="PMHRBY-xHjiPG8WiGBpw-25">
          <mxGeometry relative="1" as="geometry" />
        </mxCell>
        <mxCell id="PMHRBY-xHjiPG8WiGBpw-23" value="Set roll = 270 Degrees&amp;nbsp;&lt;div&gt;Speed = 120&lt;/div&gt;&lt;div&gt;Time= 4.5s&lt;/div&gt;" style="shape=parallelogram;perimeter=parallelogramPerimeter;whiteSpace=wrap;html=1;fixedSize=1;" vertex="1" parent="1">
          <mxGeometry x="550" y="690" width="160" height="70" as="geometry" />
        </mxCell>
        <mxCell id="PMHRBY-xHjiPG8WiGBpw-28" style="edgeStyle=orthogonalEdgeStyle;rounded=0;orthogonalLoop=1;jettySize=auto;html=1;entryX=0.5;entryY=1;entryDx=0;entryDy=0;" edge="1" parent="1" source="PMHRBY-xHjiPG8WiGBpw-25" target="PMHRBY-xHjiPG8WiGBpw-27">
          <mxGeometry relative="1" as="geometry" />
        </mxCell>
        <mxCell id="PMHRBY-xHjiPG8WiGBpw-25" value="Set a Delay for 2 seconds&amp;nbsp;" style="shape=parallelogram;perimeter=parallelogramPerimeter;whiteSpace=wrap;html=1;fixedSize=1;" vertex="1" parent="1">
          <mxGeometry x="550" y="530" width="160" height="90" as="geometry" />
        </mxCell>
        <mxCell id="PMHRBY-xHjiPG8WiGBpw-30" style="edgeStyle=orthogonalEdgeStyle;rounded=0;orthogonalLoop=1;jettySize=auto;html=1;entryX=0.5;entryY=1;entryDx=0;entryDy=0;" edge="1" parent="1" source="PMHRBY-xHjiPG8WiGBpw-27" target="PMHRBY-xHjiPG8WiGBpw-29">
          <mxGeometry relative="1" as="geometry">
            <mxPoint x="640" y="370" as="targetPoint" />
          </mxGeometry>
        </mxCell>
        <mxCell id="PMHRBY-xHjiPG8WiGBpw-27" value="Stop" style="rounded=0;whiteSpace=wrap;html=1;" vertex="1" parent="1">
          <mxGeometry x="580" y="390" width="120" height="60" as="geometry" />
        </mxCell>
        <mxCell id="PMHRBY-xHjiPG8WiGBpw-32" style="edgeStyle=orthogonalEdgeStyle;rounded=0;orthogonalLoop=1;jettySize=auto;html=1;entryX=0.5;entryY=1;entryDx=0;entryDy=0;" edge="1" parent="1" source="PMHRBY-xHjiPG8WiGBpw-29" target="PMHRBY-xHjiPG8WiGBpw-31">
          <mxGeometry relative="1" as="geometry" />
        </mxCell>
        <mxCell id="PMHRBY-xHjiPG8WiGBpw-29" value="Set Speak &quot;I&#39;m done and I need Water&quot; and &quot;wait&quot;" style="rounded=0;whiteSpace=wrap;html=1;" vertex="1" parent="1">
          <mxGeometry x="580" y="285" width="120" height="60" as="geometry" />
        </mxCell>
        <mxCell id="PMHRBY-xHjiPG8WiGBpw-31" value="Set Main LED to Red" style="rounded=0;whiteSpace=wrap;html=1;" vertex="1" parent="1">
          <mxGeometry x="580" y="150" width="120" height="60" as="geometry" />
        </mxCell>
      </root>
    </mxGraphModel>
  </diagram>
</mxfile>
